<svg xmlns="http://www.w3.org/2000/svg" xmlns:xlink="http://www.w3.org/1999/xlink" width="500" zoomAndPan="magnify" viewBox="0 0 375 374.999991" height="500" preserveAspectRatio="xMidYMid meet" version="1.0"><defs><g/></defs><g fill="#ffffff" fill-opacity="1"><g transform="translate(118.857604, 243.988945)"><g><path d="M 128.453125 -83.59375 C 128.453125 -71.738281 126.457031 -60.722656 122.46875 -50.546875 C 118.488281 -40.378906 112.914062 -31.535156 105.75 -24.015625 C 98.59375 -16.492188 90.015625 -10.609375 80.015625 -6.359375 C 70.015625 -2.117188 59 0 46.96875 0 L 6.640625 0 C 10.703125 -1.0625 13.351562 -3.179688 14.59375 -6.359375 C 15.832031 -9.546875 16.453125 -12.910156 16.453125 -16.453125 L 16.453125 -114.125 C 16.453125 -117.65625 15.742188 -120.96875 14.328125 -124.0625 C 12.910156 -127.164062 10.347656 -129.160156 6.640625 -130.046875 L 42.46875 -130.046875 C 38.570312 -129.160156 35.957031 -127.125 34.625 -123.9375 C 33.300781 -120.75 32.640625 -117.390625 32.640625 -113.859375 L 32.640625 -2.390625 L 46.703125 -2.390625 C 58.203125 -2.390625 67.976562 -4.863281 76.03125 -9.8125 C 84.082031 -14.769531 90.71875 -21.226562 95.9375 -29.1875 C 101.15625 -37.15625 104.957031 -46.09375 107.34375 -56 C 109.738281 -65.90625 110.9375 -75.8125 110.9375 -85.71875 C 110.9375 -97.75 109.117188 -109.113281 105.484375 -119.8125 C 101.859375 -130.519531 96.640625 -139.898438 89.828125 -147.953125 C 83.023438 -156.003906 74.625 -162.414062 64.625 -167.1875 C 54.625 -171.96875 43.253906 -174.359375 30.515625 -174.359375 C 18.484375 -174.359375 7.335938 -172.101562 -2.921875 -167.59375 C -13.179688 -163.082031 -22.023438 -156.929688 -29.453125 -149.140625 C -36.890625 -141.359375 -42.6875 -132.25 -46.84375 -121.8125 C -51 -111.375 -53.078125 -100.226562 -53.078125 -88.375 C -53.078125 -79.53125 -51.925781 -71.125 -49.625 -63.15625 C -47.320312 -55.195312 -43.867188 -48.078125 -39.265625 -41.796875 C -34.671875 -35.515625 -28.96875 -30.207031 -22.15625 -25.875 C -15.34375 -21.539062 -7.425781 -18.398438 1.59375 -16.453125 L 0 -14.0625 C -9.375 -15.65625 -17.953125 -18.835938 -25.734375 -23.609375 C -33.523438 -28.390625 -40.207031 -34.1875 -45.78125 -41 C -51.351562 -47.8125 -55.726562 -55.507812 -58.90625 -64.09375 C -62.09375 -72.675781 -63.6875 -81.65625 -63.6875 -91.03125 C -63.6875 -104.125 -61.117188 -115.929688 -55.984375 -126.453125 C -50.859375 -136.984375 -43.960938 -145.960938 -35.296875 -153.390625 C -26.628906 -160.828125 -16.585938 -166.578125 -5.171875 -170.640625 C 6.234375 -174.710938 18.128906 -176.75 30.515625 -176.75 C 43.785156 -176.75 56.347656 -174.445312 68.203125 -169.84375 C 80.054688 -165.25 90.453125 -158.835938 99.390625 -150.609375 C 108.328125 -142.378906 115.40625 -132.554688 120.625 -121.140625 C 125.84375 -109.734375 128.453125 -97.21875 128.453125 -83.59375 Z M 128.453125 -83.59375 "/></g></g></g><g fill="#ffffff" fill-opacity="1"><g transform="translate(154.913127, 237.775905)"><g><path d="M 124.46875 -9.015625 C 124.46875 -0.171875 123.050781 7.875 120.21875 15.125 C 117.382812 22.382812 113.359375 28.578125 108.140625 33.703125 C 102.921875 38.835938 96.6875 42.816406 89.4375 45.640625 C 82.1875 48.472656 74.132812 49.890625 65.28125 49.890625 C 57.320312 49.890625 49.710938 48.648438 42.453125 46.171875 C 35.203125 43.703125 28.832031 40.117188 23.34375 35.421875 C 17.863281 30.734375 13.488281 25.03125 10.21875 18.3125 C 6.945312 11.59375 5.3125 3.984375 5.3125 -4.515625 C 5.3125 -12.648438 6.722656 -19.632812 9.546875 -25.46875 C 12.378906 -31.3125 16.226562 -36.132812 21.09375 -39.9375 C 25.957031 -43.738281 31.660156 -46.566406 38.203125 -48.421875 C 44.753906 -50.285156 51.75 -51.21875 59.1875 -51.21875 L 59.1875 -50.15625 C 52.8125 -49.800781 46.925781 -48.253906 41.53125 -45.515625 C 36.132812 -42.773438 31.535156 -39.191406 27.734375 -34.765625 C 23.929688 -30.335938 20.96875 -25.289062 18.84375 -19.625 C 16.71875 -13.96875 15.65625 -7.957031 15.65625 -1.59375 C 15.65625 5.65625 16.847656 12.242188 19.234375 18.171875 C 21.628906 24.097656 24.945312 29.1875 29.1875 33.4375 C 33.4375 37.6875 38.566406 40.957031 44.578125 43.25 C 50.597656 45.550781 57.234375 46.703125 64.484375 46.703125 C 78.816406 46.703125 90.007812 42.5 98.0625 34.09375 C 106.113281 25.695312 110.140625 14.332031 110.140625 0 C 110.140625 -7.601562 108.410156 -14.546875 104.953125 -20.828125 C 101.503906 -27.109375 97.171875 -33.035156 91.953125 -38.609375 C 86.734375 -44.179688 81.070312 -49.53125 74.96875 -54.65625 C 68.863281 -59.789062 63.203125 -64.925781 57.984375 -70.0625 C 52.765625 -75.195312 48.429688 -80.503906 44.984375 -85.984375 C 41.535156 -91.472656 39.8125 -97.398438 39.8125 -103.765625 C 39.8125 -108.367188 40.648438 -112.523438 42.328125 -116.234375 C 44.003906 -119.953125 46.300781 -123.050781 49.21875 -125.53125 C 52.144531 -128.007812 55.550781 -129.910156 59.4375 -131.234375 C 63.332031 -132.554688 67.492188 -133.21875 71.921875 -133.21875 C 73.691406 -133.21875 75.414062 -133.039062 77.09375 -132.6875 C 78.78125 -132.34375 80.414062 -131.992188 82 -131.640625 L 88.640625 -129.515625 C 92.179688 -128.453125 95.539062 -127.921875 98.71875 -127.921875 C 101.195312 -127.921875 103.144531 -128.894531 104.5625 -130.84375 L 102.703125 -100.046875 C 101.992188 -103.585938 100.753906 -107.210938 98.984375 -110.921875 C 97.222656 -114.640625 94.96875 -118.003906 92.21875 -121.015625 C 89.476562 -124.023438 86.382812 -126.546875 82.9375 -128.578125 C 79.488281 -130.617188 75.726562 -131.640625 71.65625 -131.640625 C 65.113281 -131.640625 59.492188 -129.867188 54.796875 -126.328125 C 50.109375 -122.785156 47.765625 -117.476562 47.765625 -110.40625 C 47.765625 -104.914062 49.664062 -99.648438 53.46875 -94.609375 C 57.28125 -89.566406 62.015625 -84.613281 67.671875 -79.75 C 73.335938 -74.882812 79.488281 -69.929688 86.125 -64.890625 C 92.757812 -59.847656 98.90625 -54.492188 104.5625 -48.828125 C 110.226562 -43.171875 114.960938 -37.066406 118.765625 -30.515625 C 122.566406 -23.972656 124.46875 -16.804688 124.46875 -9.015625 Z M 124.46875 -9.015625 "/></g></g></g></svg>